PathFileType	4	(X/Y/Z)	\\Move.snu.ac.kr\motion\Animal\091204_091205_Bird\091205_bird\Project 2\Capture day 2\Session 1\pigeon_013.trc
DataRate	CameraRate	NumFrames	NumMarkers	Units	OrigDataRate	OrigDataStartFrame	OrigNumFrames
240.0	240.0	21	14	mm	240.0	231	3189
Frame#	Time	14MarkersBird:Head			14MarkersBird:C_back			14MarkersBird:Spine			14MarkersBird:L-shoulder			14MarkersBird:L-elbow			14MarkersBird:L-wrist			14MarkersBird:L-hand			14MarkersBird:R-shoulder			14MarkersBird:R-elbow			14MarkersBird:R-Wrist			14MarkersBird:R-hand			14MarkersBird:C_Tail			14MarkersBird:L-Tale			14MarkersBird:R-Tale			
		X1	Y1	Z1	X2	Y2	Z2	X3	Y3	Z3	X4	Y4	Z4	X5	Y5	Z5	X6	Y6	Z6	X7	Y7	Z7	X8	Y8	Z8	X9	Y9	Z9	X10	Y10	Z10	X11	Y11	Z11	X12	Y12	Z12	X13	Y13	Z13	X14	Y14	Z14	

1799	7.492	-43.42115	1096.46863	-1005.30597	-54.11673	1095.96045	-944.46777	-65.84248	1089.18872	-891.23883	-68.40295	1094.27368	-974.75214	-74.99480	1115.34570	-939.68549	-97.97878	1137.26379	-972.20612	-117.01267	1142.54968	-950.68805	-31.49362	1090.19287	-968.17554	-35.49629	1114.46680	-936.93488	6.30198	1126.06274	-956.47870	25.99648	1127.07788	-922.02686	-99.66470	1012.00067	-796.11389	-164.25517	1068.62476	-872.70844	21.51093	1045.64966	-832.36267	
1800	7.496	-42.19711	1090.84497	-1022.63715	-53.20893	1090.40833	-961.93024	-65.58389	1083.31616	-909.15405	-67.51756	1088.52600	-992.32874	-73.24470	1110.59070	-958.68829	-99.46608	1133.89685	-988.17957	-114.46016	1146.76025	-966.30774	-29.99697	1084.24231	-985.57709	-34.69131	1109.56995	-956.30341	9.01827	1123.00891	-971.34369	26.28926	1134.89832	-936.14368	-101.47727	1009.89600	-812.17236	-163.74414	1068.04224	-891.59680	23.39961	1044.26306	-850.21960	
1801	7.500	-40.96923	1085.25696	-1039.83313	-52.32980	1084.82043	-979.17883	-65.32651	1077.50024	-926.63971	-66.74062	1082.74097	-1009.69360	-72.97954	1105.59814	-977.75500	-102.36369	1129.36267	-1004.30505	-114.18755	1148.29932	-984.52905	-28.14193	1078.07471	-1002.78094	-31.49386	1104.34045	-975.27283	12.80529	1118.22644	-986.31885	29.34943	1138.27673	-953.41241	-102.99239	1008.86798	-827.64429	-163.04205	1065.87585	-910.15350	24.65091	1040.22852	-868.01984	
1802	7.504	-39.73581	1079.73853	-1056.88989	-51.46379	1079.29358	-996.21680	-65.03254	1071.76599	-943.77179	-65.99960	1077.06958	-1026.88086	-74.11563	1100.22241	-996.49133	-106.10324	1123.35791	-1020.83356	-116.99046	1146.27014	-1004.80115	-26.13476	1071.89355	-1019.79199	-26.77614	1098.45264	-993.11975	17.40229	1111.45325	-1001.60962	35.74216	1135.93921	-972.69104	-103.79650	1008.66864	-842.67902	-162.25883	1062.27832	-928.36255	25.41552	1033.17175	-885.81897	
1803	7.508	-38.48597	1074.32141	-1073.82800	-50.65387	1073.93115	-1013.05042	-64.66337	1066.13770	-960.62933	-65.23547	1071.63770	-1043.96216	-76.32501	1094.37048	-1014.87555	-110.10809	1115.70178	-1038.25708	-122.55311	1140.34277	-1026.66455	-24.18079	1065.91248	-1036.74658	-21.53893	1091.63110	-1009.75702	22.49375	1102.54688	-1017.58612	44.73230	1127.65930	-993.08765	-103.69704	1008.55811	-857.61963	-161.43619	1057.55688	-946.23077	25.86906	1023.57678	-903.73792	
1804	7.512	-37.20367	1069.05225	-1090.70313	-49.98000	1068.77795	-1029.69995	-64.18034	1060.64063	-977.29102	-64.41064	1066.48328	-1061.00244	-79.17828	1088.05847	-1033.30298	-113.92146	1106.35352	-1057.06458	-129.55507	1130.65112	-1049.93469	-22.39984	1060.24390	-1053.80896	-16.20340	1084.24060	-1026.17322	27.69799	1091.54626	-1034.69751	54.83152	1114.12354	-1014.45996	-102.83343	1007.37335	-872.94934	-160.61060	1051.92664	-963.83899	26.13080	1012.57782	-921.83771	
1805	7.517	-35.88256	1063.99707	-1107.58582	-49.44939	1063.83435	-1046.24878	-63.54482	1055.29968	-993.83594	-63.51569	1061.55920	-1078.05115	-82.26200	1081.31787	-1052.29736	-117.10834	1095.33130	-1077.50610	-136.34715	1117.58289	-1074.59204	-20.81793	1054.86682	-1071.04236	-10.98460	1076.71570	-1043.62634	32.46270	1078.65784	-1053.31848	64.39429	1096.46057	-1037.25134	-101.55157	1003.98785	-889.11169	-159.80334	1045.51160	-981.26965	26.25361	1001.50482	-940.01819	
1806	7.521	-34.53766	1059.21143	-1124.53003	-48.95838	1059.10315	-1062.82043	-62.71815	1050.13953	-1010.34290	-62.55572	1056.81372	-1095.16821	-85.19000	1074.07751	-1072.12512	-119.12362	1082.73853	-1099.47388	-141.49240	1101.63611	-1100.56006	-19.41279	1049.74475	-1088.41003	-6.70016	1067.44910	-1061.56580	36.11987	1064.29065	-1073.62134	71.93433	1075.86426	-1061.93982	-100.14004	997.90552	-906.34564	-158.98080	1038.46790	-998.48462	26.25490	991.45105	-958.02338	
1807	7.525	-33.19817	1054.71472	-1141.56616	-48.34282	1054.64160	-1079.49402	-61.66171	1045.18506	-1026.89075	-61.51584	1052.26331	-1112.40918	-87.58646	1066.21973	-1092.62292	-119.34906	1068.91541	-1122.48889	-143.87408	1083.40100	-1127.53735	-18.13076	1044.92126	-1105.85254	-2.57648	1057.86670	-1079.89087	38.05350	1049.12402	-1095.51758	76.24943	1053.58447	-1088.62927	-98.70261	989.52979	-924.64911	-158.08237	1031.03711	-1015.33154	26.16926	983.07129	-975.56024	
1808	7.529	-31.88369	1050.49231	-1158.70483	-47.43942	1050.54187	-1096.25867	-60.33684	1040.46143	-1043.55847	-60.35430	1047.98206	-1129.78271	-89.13039	1057.81641	-1113.34399	-117.29910	1054.54749	-1145.81702	-142.65584	1063.69763	-1154.87744	-16.89532	1040.46338	-1123.31079	1.33487	1048.29102	-1098.99634	37.83255	1034.06885	-1118.62305	76.52683	1031.08057	-1116.95020	-97.19614	979.90094	-943.82690	-157.06775	1023.48639	-1031.74500	26.09392	976.56860	-992.48419	
1809	7.533	-30.59221	1046.50439	-1175.94800	-46.14592	1046.86389	-1113.07031	-58.70490	1035.99316	-1060.42480	-59.03364	1044.04028	-1147.24829	-89.65457	1049.25537	-1133.80017	-112.84846	1040.59607	-1168.68750	-137.38359	1043.71826	-1181.62732	-15.63373	1036.39197	-1140.74390	4.57320	1038.87427	-1118.84644	35.36437	1020.14160	-1142.31470	72.51158	1009.98566	-1146.13049	-95.53394	970.12512	-963.57129	-155.91447	1016.01599	-1047.87793	26.18847	971.73254	-1008.93390	
1810	7.537	-29.31108	1042.68872	-1193.29590	-44.49387	1043.57080	-1129.92114	-56.72813	1031.80481	-1077.56726	-57.54404	1040.45300	-1164.75256	-89.20050	1041.07385	-1153.60474	-106.33160	1028.14209	-1190.51221	-128.22368	1025.02832	-1206.80322	-14.30612	1032.68835	-1158.16394	6.80865	1030.13367	-1138.92297	31.06438	1008.34210	-1165.89954	64.69535	991.87048	-1175.17090	-93.66640	960.92773	-983.56744	-154.59274	1008.70642	-1064.05310	26.61056	967.98718	-1025.31567	
1811	7.542	-28.02175	1038.97351	-1210.75793	-42.62547	1040.50684	-1146.89966	-54.40120	1027.89771	-1095.03174	-55.90953	1037.15771	-1182.27539	-87.99255	1033.71216	-1172.49939	-98.51738	1018.21490	-1210.99292	-116.13107	1009.34167	-1229.72290	-12.91532	1029.29419	-1175.63123	8.12458	1022.55377	-1158.53174	25.85989	999.51520	-1188.76160	54.37189	977.96259	-1203.06824	-91.60795	952.54858	-1003.59619	-153.08250	1001.50446	-1080.67371	27.42406	964.50922	-1042.13037	
1812	7.546	-26.68754	1035.27588	-1228.37134	-40.71609	1037.43945	-1164.16272	-52.08139	1023.99292	-1112.87524	-54.17466	1034.02478	-1199.85120	-86.37641	1027.45911	-1190.34045	-90.49149	1011.58759	-1230.07568	-102.77869	998.06964	-1250.18274	-11.46815	1026.09302	-1193.22485	9.02050	1016.42676	-1177.15833	20.95540	994.16504	-1210.40649	43.45734	968.90765	-1228.98767	-89.42166	944.90588	-1023.58582	-151.40556	994.25702	-1098.07251	28.54809	960.47083	-1059.75500	
1813	7.550	-25.27089	1031.51538	-1246.19238	-38.87562	1034.14001	-1181.84875	-50.45516	1019.59222	-1131.20825	-52.38149	1030.88464	-1217.55249	-84.68027	1022.56494	-1207.09888	-83.41989	1008.54871	-1247.83679	-90.24398	991.84479	-1268.39941	-9.94772	1022.91669	-1211.00281	10.03387	1011.86615	-1194.63635	17.47049	992.27161	-1230.45178	34.06726	964.59283	-1252.32410	-87.19307	937.82690	-1043.57361	-149.59401	986.83057	-1116.35095	29.77728	955.32733	-1078.31494	
1814	7.554	-23.75064	1027.66492	-1264.26135	-37.09759	1030.43677	-1200.03247	-49.05139	1015.13403	-1149.78186	-50.55535	1027.55310	-1235.45093	-83.01158	1019.28168	-1222.82703	-78.21608	1008.77264	-1264.40491	-80.51450	990.25330	-1284.81494	-8.34531	1019.58911	-1228.98145	11.39231	1008.91559	-1211.00818	16.11191	993.26642	-1248.66895	27.93503	964.11377	-1272.68469	-85.00919	931.18524	-1063.62012	-147.64050	979.22015	-1135.31580	30.86128	948.98999	-1097.68152	
1815	7.558	-22.11927	1023.72418	-1282.57117	-35.29832	1026.23950	-1218.72791	-47.65811	1010.56976	-1168.76074	-48.70198	1023.87402	-1253.58203	-81.08834	1017.69281	-1237.62744	-75.22417	1011.46149	-1279.93274	-74.94726	991.98206	-1299.82092	-6.70082	1015.99414	-1247.13904	12.85176	1007.57062	-1226.36450	17.01367	996.27637	-1265.07043	25.92093	966.05396	-1289.84680	-82.96987	924.91797	-1083.75256	-145.52116	971.59863	-1154.54980	31.60550	941.79285	-1117.54126	
1816	7.563	-20.37915	1019.67847	-1301.08154	-33.39666	1021.55847	-1237.88342	-46.18696	1005.82587	-1188.14270	-46.81036	1019.76447	-1271.92773	-78.28467	1017.52905	-1251.73022	-74.04615	1015.70703	-1294.56421	-73.88714	995.44904	-1313.45032	-5.10044	1012.11615	-1265.42554	13.71002	1007.66290	-1240.90320	19.76102	1000.49695	-1279.91235	27.89960	969.09308	-1303.70520	-81.19383	918.98248	-1103.95862	-143.27892	964.34637	-1173.57996	31.97520	934.34137	-1137.49854	
1817	7.567	-18.54819	1015.52051	-1319.74084	-31.37433	1016.50696	-1257.34937	-44.56502	1001.26306	-1207.38501	-44.84866	1015.26440	-1290.44141	-73.95351	1018.14386	-1265.54236	-73.62647	1020.76770	-1308.37866	-76.53925	999.61133	-1325.23389	-3.64201	1008.04962	-1283.78638	13.11035	1008.74841	-1255.08813	23.49238	1005.39392	-1293.58252	32.97004	972.59454	-1314.21558	-79.79005	913.30194	-1124.21570	-141.08018	958.03101	-1192.08606	32.20131	927.39209	-1157.15479	
1818	7.571	-16.65859	1011.25140	-1338.47192	-29.31769	1011.24524	-1276.89624	-42.81697	997.16443	-1226.04663	-42.78089	1010.52563	-1309.07312	-67.96257	1018.97119	-1279.43591	-72.62325	1026.04419	-1321.42822	-81.05253	1004.32312	-1334.44458	-2.40139	1003.96326	-1302.18091	10.59677	1010.36328	-1269.34961	27.06413	1010.60413	-1306.50793	39.72073	976.79999	-1321.44849	-78.79202	907.78333	-1144.48230	-139.15825	953.28473	-1210.06641	32.76381	921.72076	-1176.17749	
1819	7.575	-14.74166	1006.86835	-1357.17590	-27.37732	1005.91711	-1296.30579	-41.03498	993.20660	-1244.35925	-40.60843	1005.71362	-1327.76245	-60.54429	1019.46112	-1293.69934	-70.01389	1030.87354	-1333.91895	-84.92598	1009.98163	-1340.80298	-1.41570	999.98816	-1320.57446	6.35458	1011.89008	-1284.21973	29.41973	1015.69739	-1319.19861	46.42455	982.53094	-1325.83838	-78.13072	902.41565	-1164.61365	-137.68332	950.58362	-1227.85559	34.18686	917.89093	-1194.41492	
